<?xml version="1.0" standalone="no"?><!DOCTYPE svg PUBLIC "-//W3C//DTD SVG 1.1//EN" "http://www.w3.org/Graphics/SVG/1.1/DTD/svg11.dtd"><svg t="1756043865947" class="icon" viewBox="0 0 1024 1024" version="1.1" xmlns="http://www.w3.org/2000/svg" p-id="2304" xmlns:xlink="http://www.w3.org/1999/xlink" width="200" height="200"><path d="M89.60004 268.799974H921.599961q1.8944 0 3.7632 0.1792t3.737599 0.5632q1.8432 0.3584 3.6352 0.9216 1.792 0.5376 3.5584 1.28 1.7408 0.6912 3.404799 1.5872t3.2256 1.9456q1.5872 1.024 3.0464 2.2272 1.4336 1.2032 2.790399 2.559999 1.3312 1.3056 2.5344 2.7648 1.1776 1.4592 2.2272 3.0464 1.0496 1.536 1.9456 3.225599 0.896 1.664 1.6128 3.4048 0.7168 1.7408 1.279999 3.5584 0.512 1.792 0.896 3.635199 0.384 1.8688 0.5632 3.7376 0.1792 1.8688 0.1792 3.7632t-0.1792 3.763199q-0.2048 1.8688-0.5632 3.7376-0.3584 1.8432-0.9216 3.6352-0.5376 1.792-1.279999 3.558399-0.6912 1.7408-1.5872 3.4048t-1.9456 3.2256q-1.024 1.5872-2.2272 3.046399-1.2032 1.4592-2.56 2.7904-1.3312 1.3312-2.764799 2.5344-1.4592 1.1776-3.0464 2.2272-1.536 1.0496-3.2256 1.945599-1.664 0.896-3.404799 1.6128-1.7408 0.7168-3.5584 1.28-1.792 0.512-3.6352 0.896-1.8688 0.384-3.737599 0.5632-1.8688 0.1792-3.7632 0.1792H89.60004q-1.8944 0-3.763199-0.1792t-3.7376-0.5632q-1.8432-0.3584-3.6352-0.9216-1.792-0.5376-3.558399-1.28-1.7408-0.6912-3.4048-1.5872t-3.2256-1.945599q-1.5872-1.024-3.046399-2.2272-1.4592-1.2032-2.7904-2.56-1.3312-1.3056-2.5344-2.7648-1.1776-1.4592-2.2272-3.046399-1.0496-1.536-1.945599-3.2256-0.896-1.664-1.6128-3.4048-0.7168-1.7408-1.28-3.558399-0.512-1.792-0.896-3.6352-0.384-1.8688-0.5632-3.7376Q51.200044 309.094371 51.200044 307.199971t0.1792-3.7632q0.1792-1.8688 0.5632-3.7376 0.3584-1.8432 0.9216-3.635199 0.5376-1.792 1.28-3.5584 0.6912-1.7408 1.5872-3.4048t1.945599-3.225599q1.024-1.5872 2.2272-3.0464 1.2032-1.4592 2.56-2.7904 1.3056-1.3312 2.7648-2.534399 1.4592-1.1776 3.046399-2.2272 1.536-1.0496 3.2256-1.9456 1.664-0.896 3.4048-1.6128 1.7408-0.7168 3.558399-1.28 1.792-0.512 3.6352-0.896 1.8688-0.384 3.7376-0.5632 1.8688-0.1792 3.763199-0.1792z" p-id="2305" fill="#ffffff"></path><path d="M383.590412 133.606387Q384.000012 130.815988 384.000012 127.999988q0-1.8944-0.1792-3.7632t-0.5632-3.737599q-0.3584-1.8432-0.9216-3.6352-0.5376-1.792-1.28-3.5584-0.6912-1.7408-1.587199-3.404799t-1.9456-3.2256q-1.024-1.5872-2.2272-3.0464-1.2032-1.4592-2.56-2.7904-1.3056-1.3312-2.764799-2.534399-1.4592-1.1776-3.0464-2.2272-1.536-1.0496-3.2256-1.9456-1.664-0.896-3.4048-1.6128-1.7408-0.7168-3.558399-1.28-1.792-0.512-3.6352-0.896-1.8688-0.384-3.737599-0.5632-1.8688-0.1792-3.7632-0.1792-3.4304 0-6.809599 0.6144-3.3536 0.5888-6.5792 1.792-3.2 1.2032-6.143999 2.944-2.9696 1.7408-5.5552 3.9936-2.6112 2.2272-4.761599 4.889599-2.1504 2.6624-3.8144 5.6576-1.6384 3.0208-2.7392 6.271999-1.0752 3.2512-1.5872 6.655999l-115.199989 780.774326q-0.4096 2.7904-0.409599 5.606399 0 1.8944 0.1792 3.7632t0.563199 3.7376q0.3584 1.8432 0.9216 3.635199 0.5376 1.792 1.28 3.5584 0.6912 1.7408 1.5872 3.4048t1.9456 3.225599q1.024 1.5872 2.2272 3.0464 1.2032 1.4592 2.559999 2.7904 1.3056 1.3312 2.7648 2.534399 1.4592 1.1776 3.0464 2.2272 1.536 1.0496 3.2256 1.9456 1.664 0.896 3.404799 1.6128 1.7408 0.7168 3.5584 1.28 1.792 0.512 3.6352 0.896 1.8688 0.384 3.737599 0.5632Q228.505627 947.19991 230.400027 947.19991q3.4304 0 6.809599-0.6144 3.3536-0.5888 6.5792-1.792 3.2-1.2032 6.143999-2.944 2.9696-1.7408 5.555199-3.993599 2.6112-2.2272 4.7616-4.8896 2.1504-2.6624 3.8144-5.683199 1.6384-2.9952 2.739199-6.2464 1.0752-3.2512 1.5872-6.655999l115.199989-780.748726v-0.0256z" p-id="2306" fill="#ffffff"></path><path d="M818.764771 133.708787Q819.199971 130.867188 819.199971 127.999988q0-1.8944-0.1792-3.7632t-0.5632-3.737599q-0.3584-1.8432-0.9216-3.6352-0.5376-1.792-1.28-3.5584-0.6912-1.7408-1.5872-3.404799t-1.9456-3.2256q-1.024-1.5872-2.227199-3.0464-1.2032-1.4592-2.56-2.7904-1.3056-1.3312-2.7648-2.534399-1.4592-1.1776-3.0464-2.2272-1.536-1.0496-3.225599-1.9456-1.664-0.896-3.4048-1.6128-1.7408-0.7168-3.5584-1.28-1.792-0.512-3.635199-0.896-1.8688-0.384-3.7376-0.5632-1.8688-0.1792-3.7632-0.1792-3.4304 0-6.783999 0.6144-3.3792 0.5888-6.579199 1.792-3.2 1.1776-6.144 2.9184-2.9696 1.7408-5.555199 3.968-2.5856 2.2528-4.736 4.889599-2.176 2.6624-3.839999 5.6576-1.6384 2.9952-2.7392 6.246399-1.1008 3.2256-1.5872 6.604799v0.0512l-101.63199 677.503936Q422.118409 537.599949 76.800042 537.599949q-1.8944 0-3.7632 0.1792t-3.7376 0.5632q-1.8432 0.3584-3.635199 0.9216-1.792 0.5376-3.5584 1.279999-1.7408 0.6912-3.4048 1.5872t-3.225599 1.9456q-1.5872 1.024-3.0464 2.2272-1.4592 1.2032-2.7904 2.56-1.3312 1.3056-2.5344 2.764799-1.1776 1.4592-2.227199 3.0464-1.0496 1.536-1.9456 3.2256-0.896 1.664-1.6128 3.404799-0.7168 1.7408-1.28 3.5584-0.512 1.792-0.896 3.6352-0.384 1.8688-0.5632 3.737599-0.1792 1.8688-0.1792 3.7632t0.1792 3.7632q0.1792 1.8688 0.5632 3.737599 0.3584 1.8432 0.9216 3.6352 0.5376 1.792 1.28 3.5584 0.6912 1.7408 1.5872 3.404799t1.9456 3.2256q1.024 1.5872 2.227199 3.0464 1.2032 1.4592 2.56 2.790399 1.3056 1.3312 2.7648 2.5344 1.4592 1.1776 3.0464 2.2272 1.536 1.0496 3.225599 1.9456 1.664 0.896 3.4048 1.6128 1.7408 0.7168 3.5584 1.28 1.792 0.512 3.635199 0.895999 1.8688 0.384 3.7376 0.5632Q74.905642 614.399941 76.800042 614.399941q335.718368 0 538.777548 277.273574 19.942398 27.238397 53.043195 20.019198 34.585597-7.551999 39.807996-42.342396l110.33599-735.61593v-0.0256z" p-id="2307" fill="#ffffff"></path><path d="M729.599979 691.199934H921.599961q1.8944 0 3.7632 0.1792t3.737599 0.5632q1.8432 0.3584 3.6352 0.9216 1.792 0.5376 3.5584 1.28 1.7408 0.6912 3.404799 1.5872t3.2256 1.945599q1.5872 1.024 3.0464 2.2272 1.4592 1.2032 2.790399 2.56 1.3312 1.3056 2.5344 2.7648 1.1776 1.4592 2.2272 3.046399 1.0496 1.536 1.9456 3.2256 0.896 1.664 1.6128 3.4048 0.7168 1.7408 1.279999 3.558399 0.512 1.792 0.896 3.6352 0.384 1.8688 0.5632 3.7376 0.1792 1.8688 0.1792 3.763199t-0.1792 3.7632q-0.1792 1.8688-0.5632 3.7376-0.3584 1.8432-0.9216 3.635199-0.5376 1.792-1.279999 3.5584-0.6912 1.7408-1.5872 3.4048t-1.9456 3.225599q-1.024 1.5872-2.2272 3.0464-1.2032 1.4592-2.56 2.7904-1.3056 1.3312-2.764799 2.5344-1.4592 1.1776-3.0464 2.227199-1.536 1.0496-3.2256 1.9456-1.664 0.896-3.404799 1.6128-1.7408 0.7168-3.5584 1.28-1.792 0.512-3.6352 0.896-1.8688 0.384-3.737599 0.5632Q923.494361 767.999927 921.599961 767.999927h-191.999982q-1.8944 0-3.763199-0.1792t-3.7376-0.5632q-1.8432-0.3584-3.6352-0.9216-1.792-0.5376-3.558399-1.28-1.7408-0.6912-3.4048-1.5872t-3.2256-1.9456q-1.5872-1.024-3.046399-2.227199-1.4592-1.2032-2.7904-2.56-1.3312-1.3056-2.5344-2.7648-1.1776-1.4592-2.2272-3.0464-1.0496-1.536-1.9456-3.225599-0.896-1.664-1.612799-3.4048-0.7168-1.7408-1.28-3.5584-0.512-1.792-0.896-3.635199-0.384-1.8688-0.5632-3.7376Q691.199983 731.49433 691.199983 729.59993t0.1792-3.763199q0.1792-1.8688 0.5632-3.7376 0.3584-1.8432 0.9216-3.6352 0.5376-1.792 1.28-3.558399 0.6912-1.7408 1.587199-3.4048t1.9456-3.2256q1.024-1.5872 2.2272-3.046399 1.2032-1.4592 2.56-2.7904 1.3056-1.3312 2.7648-2.5344 1.4592-1.1776 3.046399-2.2272 1.536-1.0496 3.2256-1.945599 1.664-0.896 3.4048-1.6128 1.7408-0.7168 3.558399-1.28 1.792-0.512 3.6352-0.896 1.8688-0.384 3.7376-0.5632 1.8688-0.1792 3.763199-0.1792z" p-id="2308" fill="#ffffff"></path></svg>